<svg width="200" height="200" viewBox="0 0 200 200" fill="none" xmlns="http://www.w3.org/2000/svg">
<rect x="23" y="73" width="154" height="54" rx="13" fill="url(#paint0_linear_131_270)" stroke="url(#paint1_linear_131_270)" stroke-width="6"/>
<path d="M28 86C28 81.5817 31.5817 78 36 78H124C128.418 78 132 81.5817 132 86V122H36C31.5817 122 28 118.418 28 114V86Z" fill="url(#paint2_linear_131_270)"/>
<path d="M146.344 110H139.12V108.544L141.472 108.012V92.024L139.12 91.464V90.008H146.344V91.464L143.992 92.024V108.012L146.344 108.544V110ZM166.22 99.808C166.22 102.048 165.8 103.924 164.96 105.436C164.139 106.948 162.954 108.087 161.404 108.852C159.855 109.617 157.979 110 155.776 110H150.204V90.008H156.364C158.38 90.008 160.126 90.3813 161.6 91.128C163.075 91.8747 164.214 92.976 165.016 94.432C165.819 95.8693 166.22 97.6613 166.22 99.808ZM163.56 99.892C163.56 98.1187 163.262 96.6627 162.664 95.524C162.086 94.3853 161.227 93.5453 160.088 93.004C158.968 92.444 157.606 92.164 156 92.164H152.724V107.844H155.44C158.147 107.844 160.172 107.181 161.516 105.856C162.879 104.512 163.56 102.524 163.56 99.892Z" fill="url(#paint3_linear_131_270)"/>
<path d="M54.056 104.652C54.056 105.847 53.7667 106.864 53.188 107.704C52.6093 108.525 51.7787 109.16 50.696 109.608C49.632 110.056 48.372 110.28 46.916 110.28C46.1693 110.28 45.4507 110.243 44.76 110.168C44.088 110.093 43.472 109.991 42.912 109.86C42.352 109.711 41.8573 109.533 41.428 109.328V106.92C42.1 107.219 42.9307 107.489 43.92 107.732C44.928 107.975 45.964 108.096 47.028 108.096C48.0173 108.096 48.848 107.965 49.52 107.704C50.192 107.443 50.696 107.069 51.032 106.584C51.368 106.099 51.536 105.529 51.536 104.876C51.536 104.223 51.396 103.672 51.116 103.224C50.836 102.776 50.3507 102.365 49.66 101.992C48.988 101.6 48.0453 101.189 46.832 100.76C45.9733 100.443 45.2173 100.107 44.564 99.752C43.9293 99.3787 43.3973 98.9587 42.968 98.492C42.5387 98.0253 42.212 97.4933 41.988 96.896C41.7827 96.2987 41.68 95.608 41.68 94.824C41.68 93.76 41.9507 92.8547 42.492 92.108C43.0333 91.3427 43.78 90.7547 44.732 90.344C45.7027 89.9333 46.8133 89.728 48.064 89.728C49.1653 89.728 50.1733 89.8307 51.088 90.036C52.0027 90.2413 52.8333 90.512 53.58 90.848L52.796 93.004C52.1053 92.7053 51.3493 92.4533 50.528 92.248C49.7253 92.0427 48.8853 91.94 48.008 91.94C47.168 91.94 46.468 92.0613 45.908 92.304C45.348 92.5467 44.928 92.892 44.648 93.34C44.368 93.7693 44.228 94.2733 44.228 94.852C44.228 95.524 44.368 96.084 44.648 96.532C44.928 96.98 45.3853 97.3813 46.02 97.736C46.6547 98.0907 47.5133 98.4733 48.596 98.884C49.772 99.3133 50.7613 99.78 51.564 100.284C52.3853 100.769 53.0013 101.357 53.412 102.048C53.8413 102.739 54.056 103.607 54.056 104.652ZM63.4312 94.74C65.2605 94.74 66.6139 95.1413 67.4912 95.944C68.3685 96.7467 68.8072 98.0253 68.8072 99.78V110H67.0152L66.5392 107.872H66.4272C65.9979 108.413 65.5499 108.871 65.0832 109.244C64.6352 109.599 64.1125 109.86 63.5152 110.028C62.9365 110.196 62.2272 110.28 61.3872 110.28C60.4912 110.28 59.6792 110.121 58.9512 109.804C58.2419 109.487 57.6819 109.001 57.2712 108.348C56.8605 107.676 56.6552 106.836 56.6552 105.828C56.6552 104.335 57.2432 103.187 58.4192 102.384C59.5952 101.563 61.4059 101.115 63.8512 101.04L66.3992 100.956V100.06C66.3992 98.8093 66.1285 97.9413 65.5872 97.456C65.0459 96.9707 64.2805 96.728 63.2912 96.728C62.5072 96.728 61.7605 96.8493 61.0512 97.092C60.3419 97.316 59.6792 97.5773 59.0632 97.876L58.3072 96.028C58.9605 95.6733 59.7352 95.3747 60.6312 95.132C61.5272 94.8707 62.4605 94.74 63.4312 94.74ZM64.1592 102.748C62.2925 102.823 60.9952 103.121 60.2672 103.644C59.5579 104.167 59.2032 104.904 59.2032 105.856C59.2032 106.696 59.4552 107.312 59.9592 107.704C60.4819 108.096 61.1445 108.292 61.9472 108.292C63.2165 108.292 64.2712 107.947 65.1112 107.256C65.9512 106.547 66.3712 105.464 66.3712 104.008V102.664L64.1592 102.748ZM75.9065 110H73.4425V88.72H75.9065V110ZM86.3453 94.74C88.1746 94.74 89.5279 95.1413 90.4053 95.944C91.2826 96.7467 91.7213 98.0253 91.7213 99.78V110H89.9293L89.4533 107.872H89.3413C88.9119 108.413 88.4639 108.871 87.9973 109.244C87.5493 109.599 87.0266 109.86 86.4293 110.028C85.8506 110.196 85.1413 110.28 84.3013 110.28C83.4053 110.28 82.5933 110.121 81.8653 109.804C81.1559 109.487 80.5959 109.001 80.1853 108.348C79.7746 107.676 79.5693 106.836 79.5693 105.828C79.5693 104.335 80.1573 103.187 81.3333 102.384C82.5093 101.563 84.3199 101.115 86.7653 101.04L89.3133 100.956V100.06C89.3133 98.8093 89.0426 97.9413 88.5013 97.456C87.9599 96.9707 87.1946 96.728 86.2053 96.728C85.4213 96.728 84.6746 96.8493 83.9653 97.092C83.2559 97.316 82.5933 97.5773 81.9772 97.876L81.2213 96.028C81.8746 95.6733 82.6493 95.3747 83.5453 95.132C84.4413 94.8707 85.3746 94.74 86.3453 94.74ZM87.0733 102.748C85.2066 102.823 83.9093 103.121 83.1813 103.644C82.4719 104.167 82.1173 104.904 82.1173 105.856C82.1173 106.696 82.3693 107.312 82.8733 107.704C83.3959 108.096 84.0586 108.292 84.8613 108.292C86.1306 108.292 87.1853 107.947 88.0253 107.256C88.8653 106.547 89.2853 105.464 89.2853 104.008V102.664L87.0733 102.748ZM106.129 105.856C106.129 106.827 105.886 107.639 105.401 108.292C104.915 108.945 104.225 109.44 103.329 109.776C102.433 110.112 101.369 110.28 100.137 110.28C99.0912 110.28 98.1859 110.196 97.4206 110.028C96.6739 109.86 96.0112 109.627 95.4326 109.328V107.088C96.0299 107.387 96.7486 107.667 97.5886 107.928C98.4472 108.171 99.3152 108.292 100.193 108.292C101.443 108.292 102.349 108.096 102.909 107.704C103.469 107.293 103.749 106.752 103.749 106.08C103.749 105.707 103.646 105.371 103.441 105.072C103.235 104.773 102.862 104.475 102.321 104.176C101.798 103.877 101.042 103.541 100.053 103.168C99.0819 102.795 98.2512 102.421 97.5606 102.048C96.8699 101.675 96.3379 101.227 95.9646 100.704C95.5912 100.181 95.4046 99.5093 95.4046 98.688C95.4046 97.4187 95.9179 96.4387 96.9446 95.748C97.9899 95.0573 99.3526 94.712 101.033 94.712C101.947 94.712 102.797 94.8053 103.581 94.992C104.383 95.16 105.13 95.4027 105.821 95.72L104.981 97.68C104.57 97.4933 104.131 97.3347 103.665 97.204C103.217 97.0547 102.759 96.9427 102.293 96.868C101.826 96.7747 101.35 96.728 100.865 96.728C99.8566 96.728 99.0819 96.896 98.5406 97.232C98.0179 97.5493 97.7566 97.988 97.7566 98.548C97.7566 98.9587 97.8779 99.3133 98.1206 99.612C98.3632 99.892 98.7646 100.172 99.3246 100.452C99.9032 100.713 100.669 101.031 101.621 101.404C102.573 101.759 103.385 102.123 104.057 102.496C104.729 102.869 105.242 103.327 105.597 103.868C105.951 104.391 106.129 105.053 106.129 105.856ZM115.439 94.74C117.268 94.74 118.622 95.1413 119.499 95.944C120.376 96.7467 120.815 98.0253 120.815 99.78V110H119.023L118.547 107.872H118.435C118.006 108.413 117.558 108.871 117.091 109.244C116.643 109.599 116.12 109.86 115.523 110.028C114.944 110.196 114.235 110.28 113.395 110.28C112.499 110.28 111.687 110.121 110.959 109.804C110.25 109.487 109.69 109.001 109.279 108.348C108.868 107.676 108.663 106.836 108.663 105.828C108.663 104.335 109.251 103.187 110.427 102.384C111.603 101.563 113.414 101.115 115.859 101.04L118.407 100.956V100.06C118.407 98.8093 118.136 97.9413 117.595 97.456C117.054 96.9707 116.288 96.728 115.299 96.728C114.515 96.728 113.768 96.8493 113.059 97.092C112.35 97.316 111.687 97.5773 111.071 97.876L110.315 96.028C110.968 95.6733 111.743 95.3747 112.639 95.132C113.535 94.8707 114.468 94.74 115.439 94.74ZM116.167 102.748C114.3 102.823 113.003 103.121 112.275 103.644C111.566 104.167 111.211 104.904 111.211 105.856C111.211 106.696 111.463 107.312 111.967 107.704C112.49 108.096 113.152 108.292 113.955 108.292C115.224 108.292 116.279 107.947 117.119 107.256C117.959 106.547 118.379 105.464 118.379 104.008V102.664L116.167 102.748Z" fill="url(#paint4_linear_131_270)"/>
<defs>
<linearGradient id="paint0_linear_131_270" x1="100" y1="70" x2="100" y2="130" gradientUnits="userSpaceOnUse">
<stop stop-color="white"/>
<stop offset="1" stop-color="#999999"/>
</linearGradient>
<linearGradient id="paint1_linear_131_270" x1="100" y1="70" x2="100" y2="130" gradientUnits="userSpaceOnUse">
<stop stop-color="white"/>
<stop offset="1" stop-color="#999999"/>
</linearGradient>
<linearGradient id="paint2_linear_131_270" x1="80" y1="78" x2="80" y2="122" gradientUnits="userSpaceOnUse">
<stop/>
<stop offset="1" stop-color="#666666"/>
</linearGradient>
<linearGradient id="paint3_linear_131_270" x1="153" y1="78" x2="153" y2="123" gradientUnits="userSpaceOnUse">
<stop/>
<stop offset="1" stop-color="#666666"/>
</linearGradient>
<linearGradient id="paint4_linear_131_270" x1="82" y1="78" x2="82" y2="122" gradientUnits="userSpaceOnUse">
<stop stop-color="white"/>
<stop offset="1" stop-color="#999999"/>
</linearGradient>
</defs>
</svg>
