<svg width="32" height="32" viewBox="0 0 32 32" fill="none" xmlns="http://www.w3.org/2000/svg">
<rect x="1.672" y="6.672" width="28.656" height="18.656" rx="2.912" fill="url(#paint0_linear_22_196)" stroke="url(#paint1_linear_22_196)" stroke-width="1.344"/>
<path d="M2.6 10.1C2.6 8.9402 3.5402 8 4.7 8H14.5C15.6598 8 16.6 8.9402 16.6 10.1V24H4.7C3.5402 24 2.6 23.0598 2.6 21.9V10.1Z" fill="white"/>
<path d="M20.98 20H18.4V19.48L19.24 19.29V13.58L18.4 13.38V12.86H20.98V13.38L20.14 13.58V19.29L20.98 19.48V20ZM28.0787 16.36C28.0787 17.16 27.9287 17.83 27.6287 18.37C27.3353 18.91 26.912 19.3167 26.3587 19.59C25.8053 19.8633 25.1353 20 24.3487 20H22.3587V12.86H24.5587C25.2787 12.86 25.902 12.9933 26.4287 13.26C26.9553 13.5267 27.362 13.92 27.6487 14.44C27.9353 14.9533 28.0787 15.5933 28.0787 16.36ZM27.1287 16.39C27.1287 15.7567 27.022 15.2367 26.8087 14.83C26.602 14.4233 26.2953 14.1233 25.8887 13.93C25.4887 13.73 25.002 13.63 24.4287 13.63H23.2587V19.23H24.2287C25.1953 19.23 25.9187 18.9933 26.3987 18.52C26.8853 18.04 27.1287 17.33 27.1287 16.39Z" fill="url(#paint2_linear_22_196)"/>
<path d="M12.02 18.09C12.02 18.5167 11.9167 18.88 11.71 19.18C11.5033 19.4733 11.2067 19.7 10.82 19.86C10.44 20.02 9.99 20.1 9.47 20.1C9.20333 20.1 8.94667 20.0867 8.7 20.06C8.46 20.0333 8.24 19.9967 8.04 19.95C7.84 19.8967 7.66333 19.8333 7.51 19.76V18.9C7.75 19.0067 8.04667 19.1033 8.4 19.19C8.76 19.2767 9.13 19.32 9.51 19.32C9.86333 19.32 10.16 19.2733 10.4 19.18C10.64 19.0867 10.82 18.9533 10.94 18.78C11.06 18.6067 11.12 18.4033 11.12 18.17C11.12 17.9367 11.07 17.74 10.97 17.58C10.87 17.42 10.6967 17.2733 10.45 17.14C10.21 17 9.87333 16.8533 9.44 16.7C9.13333 16.5867 8.86333 16.4667 8.63 16.34C8.40333 16.2067 8.21333 16.0567 8.06 15.89C7.90667 15.7233 7.79 15.5333 7.71 15.32C7.63667 15.1067 7.6 14.86 7.6 14.58C7.6 14.2 7.69667 13.8767 7.89 13.61C8.08333 13.3367 8.35 13.1267 8.69 12.98C9.03667 12.8333 9.43333 12.76 9.88 12.76C10.2733 12.76 10.6333 12.7967 10.96 12.87C11.2867 12.9433 11.5833 13.04 11.85 13.16L11.57 13.93C11.3233 13.8233 11.0533 13.7333 10.76 13.66C10.4733 13.5867 10.1733 13.55 9.86 13.55C9.56 13.55 9.31 13.5933 9.11 13.68C8.91 13.7667 8.76 13.89 8.66 14.05C8.56 14.2033 8.51 14.3833 8.51 14.59C8.51 14.83 8.56 15.03 8.66 15.19C8.76 15.35 8.92333 15.4933 9.15 15.62C9.37667 15.7467 9.68333 15.8833 10.07 16.03C10.49 16.1833 10.8433 16.35 11.13 16.53C11.4233 16.7033 11.6433 16.9133 11.79 17.16C11.9433 17.4067 12.02 17.7167 12.02 18.09Z" fill="url(#paint3_linear_22_196)"/>
<defs>
<linearGradient id="paint0_linear_22_196" x1="15.5" y1="6" x2="16" y2="26" gradientUnits="userSpaceOnUse">
<stop/>
<stop offset="1" stop-color="#666666"/>
</linearGradient>
<linearGradient id="paint1_linear_22_196" x1="16" y1="6" x2="16" y2="26" gradientUnits="userSpaceOnUse">
<stop/>
<stop offset="1" stop-color="#666666"/>
</linearGradient>
<linearGradient id="paint2_linear_22_196" x1="23.5" y1="9" x2="23.5" y2="24" gradientUnits="userSpaceOnUse">
<stop stop-color="white"/>
<stop offset="1" stop-color="#999999"/>
</linearGradient>
<linearGradient id="paint3_linear_22_196" x1="9" y1="9" x2="9" y2="24" gradientUnits="userSpaceOnUse">
<stop/>
<stop offset="1" stop-color="#666666"/>
</linearGradient>
</defs>
</svg>
